<?xml version="1.0" encoding="UTF-8"?>
<!DOCTYPE svg PUBLIC "-//W3C//DTD SVG 1.1//EN" "http://www.w3.org/Graphics/SVG/1.1/DTD/svg11.dtd">
<svg xmlns="http://www.w3.org/2000/svg" version="1.1" width="466px" height="199px" style="shape-rendering:geometricPrecision; text-rendering:geometricPrecision; image-rendering:optimizeQuality; fill-rule:evenodd; clip-rule:evenodd" xmlns:xlink="http://www.w3.org/1999/xlink">
<g><path style="opacity:0.944" fill="#fefffe" d="M 38.5,-0.5 C 39.5,-0.5 40.5,-0.5 41.5,-0.5C 41.0741,9.16667 40.5741,18.8333 40,28.5C 38,31.1667 36,33.8333 34,36.5C 33.7397,63.8583 34.4063,91.1917 36,118.5C 37.6918,123.496 40.8585,124.996 45.5,123C 47.8598,121.635 49.5265,119.635 50.5,117C 53.5282,115.86 55.6949,116.694 57,119.5C 57.6667,122.167 57.6667,124.833 57,127.5C 55.3333,131.5 53.6667,135.5 52,139.5C 51.3333,143.5 51.3333,147.5 52,151.5C 60.5924,164.004 61.5924,177.004 55,190.5C 50.8811,194.639 46.0478,197.306 40.5,198.5C 33.5,198.5 26.5,198.5 19.5,198.5C 9.58098,196.556 2.91431,190.889 -0.5,181.5C -0.5,175.833 -0.5,170.167 -0.5,164.5C 2.36791,158.435 5.53457,152.435 9,146.5C 9.16667,145.167 9.33333,143.833 9.5,142.5C 7.98126,135.773 6.14792,129.106 4,122.5C 2.90912,116.903 3.57579,111.57 6,106.5C 7.66667,105.167 9.33333,105.167 11,106.5C 12.3094,110.099 13.8094,113.599 15.5,117C 19.1661,118.271 21.6661,117.104 23,113.5C 24.4825,88.1902 25.1492,62.8568 25,37.5C 24.2068,34.8303 23.0401,32.3303 21.5,30C 22.9837,26.0311 24.9837,22.3644 27.5,19C 26.5494,18.2825 26.3828,17.4491 27,16.5C 28.3988,15.7734 29.8988,15.2734 31.5,15C 30.552,14.5172 29.552,14.3505 28.5,14.5C 29.0488,12.0987 29.8822,9.76541 31,7.5C 32.3985,6.94915 33.7318,6.61581 35,6.5C 35.6529,3.86077 36.8196,1.52743 38.5,-0.5 Z"/></g>
<g><path style="opacity:0.938" fill="#fefffe" d="M 122.5,47.5 C 139.31,46.8195 153.31,52.6528 164.5,65C 159.652,70.0151 154.652,74.8485 149.5,79.5C 139.743,68.309 127.743,65.1424 113.5,70C 101.007,76.8205 95.8401,87.3205 98,101.5C 102.433,118.921 113.599,126.421 131.5,124C 139.663,121.837 145.33,116.837 148.5,109C 139.84,108.5 131.173,108.334 122.5,108.5C 122.5,102.167 122.5,95.8333 122.5,89.5C 138.833,89.5 155.167,89.5 171.5,89.5C 172.838,127.663 154.504,145.83 116.5,144C 90.4634,138.606 76.7967,122.606 75.5,96C 78.1554,67.1785 93.8221,51.0118 122.5,47.5 Z"/></g>
<g><path style="opacity:0.895" fill="#fefffe" d="M 258.5,47.5 C 271.111,46.6072 275.944,52.2739 273,64.5C 268.313,70.9353 262.479,72.1019 255.5,68C 249.555,60.1162 250.555,53.2829 258.5,47.5 Z"/></g>
<g><path style="opacity:0.942" fill="#fefffe" d="M 295.5,51.5 C 302.5,51.5 309.5,51.5 316.5,51.5C 316.5,60.5 316.5,69.5 316.5,78.5C 321.5,78.5 326.5,78.5 331.5,78.5C 331.5,84.5 331.5,90.5 331.5,96.5C 326.5,96.5 321.5,96.5 316.5,96.5C 316.5,112.167 316.5,127.833 316.5,143.5C 309.5,143.5 302.5,143.5 295.5,143.5C 295.5,127.833 295.5,112.167 295.5,96.5C 290.833,96.5 286.167,96.5 281.5,96.5C 281.5,90.5 281.5,84.5 281.5,78.5C 286.167,78.5 290.833,78.5 295.5,78.5C 295.5,69.5 295.5,60.5 295.5,51.5 Z"/></g>
<g><path style="opacity:0.945" fill="#fefffe" d="M 465.5,80.5 C 465.5,82.8333 465.5,85.1667 465.5,87.5C 462.189,91.1466 458.855,94.8133 455.5,98.5C 448.201,93.7916 442.367,95.1249 438,102.5C 437.5,116.163 437.333,129.829 437.5,143.5C 430.5,143.5 423.5,143.5 416.5,143.5C 416.5,121.833 416.5,100.167 416.5,78.5C 423.5,78.5 430.5,78.5 437.5,78.5C 437.351,79.552 437.517,80.552 438,81.5C 447.128,75.9515 456.294,75.6182 465.5,80.5 Z"/></g>
<g><path style="opacity:0.952" fill="#fefffe" d="M 356.5,77.5 C 361.844,77.334 367.177,77.5006 372.5,78C 376.062,78.7389 379.228,80.2389 382,82.5C 382.49,81.2068 382.657,79.8734 382.5,78.5C 389.167,78.5 395.833,78.5 402.5,78.5C 402.5,100.167 402.5,121.833 402.5,143.5C 395.833,143.5 389.167,143.5 382.5,143.5C 382.762,142.022 382.429,140.689 381.5,139.5C 369.235,146.463 357.235,145.963 345.5,138C 332.376,123.171 330.543,107.005 340,89.5C 344.305,83.672 349.805,79.672 356.5,77.5 Z M 364.5,96.5 C 378.641,95.8113 384.475,102.478 382,116.5C 375.295,127.171 367.295,128.171 358,119.5C 353.215,109.703 355.382,102.036 364.5,96.5 Z"/></g>
<g><path style="opacity:0.934" fill="#fefffe" d="M 179.5,78.5 C 186.833,78.5 194.167,78.5 201.5,78.5C 201.333,92.504 201.5,106.504 202,120.5C 204.897,125.155 209.063,126.655 214.5,125C 216.378,123.457 217.878,121.624 219,119.5C 219.5,105.837 219.667,92.1707 219.5,78.5C 226.5,78.5 233.5,78.5 240.5,78.5C 240.938,94.5573 240.438,110.557 239,126.5C 231.769,141.198 219.936,147.031 203.5,144C 189.415,141.248 181.581,132.748 180,118.5C 179.5,105.171 179.333,91.8375 179.5,78.5 Z"/></g>
<g><path style="opacity:0.943" fill="#fefffe" d="M 252.5,78.5 C 259.5,78.5 266.5,78.5 273.5,78.5C 273.5,100.167 273.5,121.833 273.5,143.5C 266.5,143.5 259.5,143.5 252.5,143.5C 252.5,121.833 252.5,100.167 252.5,78.5 Z"/></g>
<g><path style="opacity:0.861" fill="#fefffe" d="M 75.5,163.5 C 78.1667,163.5 80.8333,163.5 83.5,163.5C 83.5,174.5 83.5,185.5 83.5,196.5C 80.8333,196.5 78.1667,196.5 75.5,196.5C 75.5,185.5 75.5,174.5 75.5,163.5 Z"/></g>
<g><path style="opacity:0.867" fill="#fefffe" d="M 88.5,163.5 C 90.5273,163.338 92.5273,163.505 94.5,164C 99.1196,169.408 103.62,174.908 108,180.5C 108.499,174.843 108.666,169.176 108.5,163.5C 111.167,163.5 113.833,163.5 116.5,163.5C 116.5,174.5 116.5,185.5 116.5,196.5C 114.473,196.662 112.473,196.495 110.5,196C 105.88,190.592 101.38,185.092 97,179.5C 96.5006,185.157 96.3339,190.824 96.5,196.5C 93.8333,196.5 91.1667,196.5 88.5,196.5C 88.5,185.5 88.5,174.5 88.5,163.5 Z"/></g>
<g><path style="opacity:0.852" fill="#fefffe" d="M 127.5,163.5 C 131.182,163.335 134.848,163.501 138.5,164C 140.587,164.792 142.421,165.959 144,167.5C 144.49,166.207 144.657,164.873 144.5,163.5C 153.833,163.5 163.167,163.5 172.5,163.5C 172.5,165.833 172.5,168.167 172.5,170.5C 169.167,170.5 165.833,170.5 162.5,170.5C 162.5,179.167 162.5,187.833 162.5,196.5C 159.833,196.5 157.167,196.5 154.5,196.5C 154.5,187.833 154.5,179.167 154.5,170.5C 150.649,171.029 147.149,170.362 144,168.5C 142.333,170.167 140.667,171.833 139,173.5C 135.955,170.177 132.788,169.844 129.5,172.5C 132.275,175.164 135.608,176.997 139.5,178C 146.395,184.488 146.062,190.488 138.5,196C 133.818,197.872 129.152,197.872 124.5,196C 118.416,193.529 118.082,190.529 123.5,187C 126.039,188.452 128.873,189.618 132,190.5C 136.348,189.887 137.181,188.054 134.5,185C 130.714,183.607 127.048,181.941 123.5,180C 119.823,173.128 121.157,167.628 127.5,163.5 Z"/></g>
<g><path style="opacity:0.854" fill="#fefffe" d="M 175.5,163.5 C 182.257,163.123 188.924,163.623 195.5,165C 200.545,169.011 201.545,173.845 198.5,179.5C 196.869,181.297 194.869,182.464 192.5,183C 195.833,187.333 199.167,191.667 202.5,196C 199.167,196.667 195.833,196.667 192.5,196C 189.789,192.078 186.955,188.244 184,184.5C 183.501,188.486 183.334,192.486 183.5,196.5C 180.833,196.5 178.167,196.5 175.5,196.5C 175.5,185.5 175.5,174.5 175.5,163.5 Z M 183.5,170.5 C 185.857,170.337 188.19,170.503 190.5,171C 192.032,173.33 191.698,175.33 189.5,177C 187.527,177.495 185.527,177.662 183.5,177.5C 183.5,175.167 183.5,172.833 183.5,170.5 Z"/></g>
<g><path style="opacity:0.859" fill="#fefffe" d="M 203.5,163.5 C 206.167,163.5 208.833,163.5 211.5,163.5C 211.334,170.508 211.5,177.508 212,184.5C 213.287,188.729 216.12,190.229 220.5,189C 221.701,188.097 222.535,186.931 223,185.5C 223.5,178.174 223.666,170.841 223.5,163.5C 226.167,163.5 228.833,163.5 231.5,163.5C 231.914,172.582 231.414,181.582 230,190.5C 224.386,197.277 217.553,198.777 209.5,195C 207.622,193.457 206.122,191.624 205,189.5C 203.59,180.916 203.09,172.25 203.5,163.5 Z"/></g>
<g><path style="opacity:0.878" fill="#fefffe" d="M 236.5,163.5 C 238.604,163.201 240.604,163.534 242.5,164.5C 246.197,169.698 249.697,175.031 253,180.5C 256.333,175.167 259.667,169.833 263,164.5C 265.041,163.577 267.208,163.244 269.5,163.5C 269.5,174.5 269.5,185.5 269.5,196.5C 266.833,196.5 264.167,196.5 261.5,196.5C 261.666,191.489 261.499,186.489 261,181.5C 255.667,192.167 250.333,192.167 245,181.5C 244.501,186.489 244.334,191.489 244.5,196.5C 241.833,196.5 239.167,196.5 236.5,196.5C 236.5,185.5 236.5,174.5 236.5,163.5 Z"/></g>
<g><path style="opacity:0.834" fill="#fefffe" d="M 274.5,163.5 C 282.5,163.5 290.5,163.5 298.5,163.5C 298.5,165.833 298.5,168.167 298.5,170.5C 293.5,170.5 288.5,170.5 283.5,170.5C 283.5,172.5 283.5,174.5 283.5,176.5C 288.167,176.5 292.833,176.5 297.5,176.5C 297.5,178.833 297.5,181.167 297.5,183.5C 292.833,183.5 288.167,183.5 283.5,183.5C 283.5,185.5 283.5,187.5 283.5,189.5C 288.5,189.5 293.5,189.5 298.5,189.5C 298.5,191.833 298.5,194.167 298.5,196.5C 290.5,196.5 282.5,196.5 274.5,196.5C 274.5,185.5 274.5,174.5 274.5,163.5 Z"/></g>
<g><path style="opacity:0.829" fill="#fefffe" d="M 302.5,163.5 C 304.527,163.338 306.527,163.505 308.5,164C 313.12,169.408 317.62,174.908 322,180.5C 322.499,174.843 322.666,169.176 322.5,163.5C 325.5,163.5 328.5,163.5 331.5,163.5C 331.5,174.5 331.5,185.5 331.5,196.5C 329.143,196.663 326.81,196.497 324.5,196C 320,190.167 315.5,184.333 311,178.5C 310.501,184.491 310.334,190.491 310.5,196.5C 307.833,196.5 305.167,196.5 302.5,196.5C 302.5,185.5 302.5,174.5 302.5,163.5 Z"/></g>
<g><path style="opacity:0.855" fill="#fefffe" d="M 360.5,171.5 C 357.946,170.612 355.279,170.279 352.5,170.5C 352.5,179.167 352.5,187.833 352.5,196.5C 349.833,196.5 347.167,196.5 344.5,196.5C 344.5,187.833 344.5,179.167 344.5,170.5C 341.167,170.5 337.833,170.5 334.5,170.5C 334.5,168.167 334.5,165.833 334.5,163.5C 343.833,163.5 353.167,163.5 362.5,163.5C 362.868,166.533 362.202,169.2 360.5,171.5 Z"/></g>
<g><path style="opacity:0.806" fill="#fefffe" d="M 385.5,172.5 C 384.883,172.611 384.383,172.944 384,173.5C 381.358,170.971 378.192,169.971 374.5,170.5C 374.238,171.978 374.571,173.311 375.5,174.5C 380.201,175.932 384.367,178.266 388,181.5C 389.532,185.497 389.366,189.497 387.5,193.5C 386.167,193.833 386.167,194.167 387.5,194.5C 379.647,198.733 371.98,198.233 364.5,193C 363.289,191.887 363.289,190.72 364.5,189.5C 365.874,188.289 367.374,187.289 369,186.5C 372.447,189.486 376.28,190.486 380.5,189.5C 380.714,187.856 380.38,186.356 379.5,185C 376.595,183.963 373.761,182.796 371,181.5C 370.667,182.5 370.333,183.5 370,184.5C 367.914,179.985 366.081,175.318 364.5,170.5C 369.237,163.946 375.571,161.779 383.5,164C 389.25,165.739 389.917,168.573 385.5,172.5 Z"/></g>
<g><path style="opacity:0.016" fill="#fefffe" d="M 391.5,168.5 C 390.833,167.167 390.833,167.167 391.5,168.5 Z"/></g>
<g><path style="opacity:0.075" fill="#fefffe" d="M 391.5,168.5 C 392.525,168.897 392.692,169.563 392,170.5C 391.536,169.906 391.369,169.239 391.5,168.5 Z"/></g>
<g><path style="opacity:0.09" fill="#fefffe" d="M 360.5,171.5 C 361.458,171.953 362.292,172.619 363,173.5C 363.667,177.833 363.667,182.167 363,186.5C 362,187.833 361,189.167 360,190.5C 360.349,187.938 361.183,185.438 362.5,183C 361.167,181 361.167,179 362.5,177C 361.536,175.275 360.869,173.441 360.5,171.5 Z"/></g>
<g><path style="opacity:0.141" fill="#fefffe" d="M 385.5,172.5 C 386.167,172.5 386.5,172.833 386.5,173.5C 386.167,173.167 385.833,172.833 385.5,172.5 Z"/></g>
<g><path style="opacity:0.082" fill="#fefffe" d="M 386.5,173.5 C 387.338,173.842 387.672,174.508 387.5,175.5C 386.662,175.158 386.328,174.492 386.5,173.5 Z"/></g>
<g><path style="opacity:0.089" fill="#fefffe" d="M 387.5,175.5 C 388.573,176.251 388.74,177.251 388,178.5C 387.517,177.552 387.351,176.552 387.5,175.5 Z"/></g>
<g><path style="opacity:0.145" fill="#fefffe" d="M 391.5,190.5 C 392.833,191.167 392.833,191.167 391.5,190.5 Z"/></g>
<g><path style="opacity:0.137" fill="#fefffe" d="M 391.5,191.5 C 390.833,192.167 390.833,192.167 391.5,191.5 Z"/></g>
<g><path style="opacity:0.149" fill="#fefffe" d="M 390.5,192.5 C 389.833,193.167 389.833,193.167 390.5,192.5 Z"/></g>
<g><path style="opacity:0.071" fill="#fefffe" d="M 387.5,194.5 C 387.5,194.167 387.5,193.833 387.5,193.5C 388.167,193.5 388.833,193.5 389.5,193.5C 389.158,194.338 388.492,194.672 387.5,194.5 Z"/></g>
</svg>
